<svg width="101" height="109" viewBox="0 0 101 109" fill="none" xmlns="http://www.w3.org/2000/svg">
<rect x="17.1667" y="6.66669" width="66.6667" height="66.6667" rx="18" fill="url(#paint0_linear_298_16605)"/>
<path fill-rule="evenodd" clip-rule="evenodd" d="M72.6459 48.8406C73.6371 47.1083 74.2037 45.1018 74.2037 42.9629C74.2037 36.4173 68.8975 31.1111 62.3519 31.1111C55.8063 31.1111 50.5 36.4173 50.5 42.9629C50.5 49.5085 55.8063 54.8148 62.3519 54.8148C65.3435 54.8148 68.0762 53.7064 70.1618 51.8778L73.8046 52.7523L72.6459 48.8406Z" fill="white"/>
<path fill-rule="evenodd" clip-rule="evenodd" d="M54.3712 51.7253C57.8742 49.0157 60.1296 44.7712 60.1296 40C60.1296 37.0608 59.2737 34.3215 57.7975 32.0178C53.5124 33.8029 50.5 38.0311 50.5 42.963C50.5 46.4346 51.9927 49.5576 54.3712 51.7253Z" fill="#E6F2FF"/>
<path fill-rule="evenodd" clip-rule="evenodd" d="M41.6111 54.8148C49.7931 54.8148 56.4259 48.182 56.4259 40C56.4259 31.818 49.7931 25.1852 41.6111 25.1852C33.4291 25.1852 26.7963 31.818 26.7963 40C26.7963 42.6433 27.4885 45.1248 28.7016 47.2733L27.079 52.7526L32.2762 51.5044C34.824 53.5743 38.0727 54.8148 41.6111 54.8148Z" fill="#F8F8F8"/>
<g clip-path="url(#clip0_298_16605)">
<path d="M100.696 99.9163C100.696 100.431 100.49 100.915 100.079 101.367C99.6676 101.8 99.2153 102.016 98.7219 102.016C98.1463 102.016 97.6221 101.861 97.1492 101.553C96.6764 101.223 96.44 100.812 96.44 100.318C96.44 99.5355 96.5839 98.9592 96.8717 98.5887C97.1801 98.2182 97.6323 98.033 98.2285 98.033C98.9275 98.033 99.5134 98.2079 99.9862 98.5578C100.459 98.8872 100.696 99.34 100.696 99.9163Z" fill="#131313"/>
<path d="M89.9808 100.379C89.9397 100.729 89.7957 101.038 89.5491 101.306C89.3024 101.573 88.9837 101.707 88.5931 101.707C87.9764 101.707 87.5241 101.594 87.2363 101.367C86.9485 101.12 86.8045 100.678 86.8045 100.04C86.8045 99.1753 86.8559 98.2285 86.9587 97.1993C87.041 96.0055 87.0821 95.0895 87.0821 94.4514C87.0821 94.1221 87.0615 93.7104 87.0204 93.2164C86.9793 92.7636 86.9587 92.424 86.9587 92.1976C86.8971 91.8477 86.7531 91.5698 86.527 91.3639C86.3214 91.1581 85.9925 90.9832 85.5402 90.8391C85.3552 90.7567 85.201 90.6229 85.0777 90.4377C84.9543 90.2319 84.8926 90.0466 84.8926 89.8819C84.8926 89.4085 85.0777 89.0483 85.4477 88.8013C85.8177 88.5543 86.27 88.4308 86.8045 88.4308C87.4007 88.4308 87.9147 88.6367 88.3464 89.0483C88.7781 89.46 89.1071 89.9746 89.3332 90.5921C89.806 89.9128 90.3817 89.3674 91.0601 88.9557C91.7591 88.544 92.4375 88.3382 93.0953 88.3382C93.9382 88.3382 94.6475 88.4823 95.2231 88.7704C95.8193 89.038 96.1174 89.5114 96.1174 90.1907C96.1174 90.5818 95.9426 90.9934 95.5931 91.4257C95.2642 91.8374 94.925 92.0432 94.5755 92.0432C94.3083 92.0432 93.9896 91.9197 93.6196 91.6727C93.4757 91.5698 93.3112 91.4874 93.1262 91.4257C92.9617 91.3434 92.787 91.3022 92.6019 91.3022C92.273 91.3022 91.9646 91.3537 91.6768 91.4566C91.389 91.5595 91.1937 91.683 91.0909 91.8271C90.762 92.3417 90.5153 92.8048 90.3508 93.2164C90.2069 93.6281 90.135 94.0707 90.135 94.5441C90.135 94.894 90.1247 95.1719 90.1041 95.3777L90.0733 97.1376L90.1041 98.3108C90.1041 99.1753 90.063 99.8649 89.9808 100.379Z" fill="#131313"/>
<path d="M72.113 94.6367C72.113 93.8957 72.2466 93.2061 72.5139 92.5681C72.7811 91.9094 73.1717 91.2301 73.6857 90.5303C74.1996 89.8305 74.9089 89.285 75.8134 88.8939C76.718 88.4823 77.7048 88.2764 78.7738 88.2764C79.5961 88.2764 80.3876 88.4514 81.1483 88.8013C81.9295 89.1306 82.6285 89.5423 83.2452 90.0363C83.3274 90.1804 83.4713 90.448 83.6769 90.8391C83.8825 91.2096 84.0264 91.5492 84.1086 91.8579C84.2114 92.1667 84.2628 92.4857 84.2628 92.8151C84.2628 94.1941 83.7592 95.1204 82.7518 95.5938C81.7445 96.0466 80.4699 96.2731 78.928 96.2731C77.3861 96.2731 76.1321 96.1701 75.1659 95.9643C75.207 96.3554 75.3098 96.7465 75.4742 97.1376C75.6387 97.5286 75.834 97.8271 76.0601 98.0329C76.4713 98.424 76.8722 98.6813 77.2628 98.8048C77.674 98.9077 78.2187 98.9592 78.8972 98.9592C79.9251 98.9592 80.7268 98.7636 81.3025 98.3726C81.837 98.0226 82.2481 97.8477 82.536 97.8477C82.9266 97.8477 83.2246 97.9712 83.4302 98.2182C83.6358 98.4446 83.7386 98.7431 83.7386 99.1136C83.7386 99.8957 83.2349 100.534 82.2276 101.028C81.2408 101.522 80.1204 101.769 78.8663 101.769C77.8795 101.769 76.903 101.594 75.9368 101.244C74.9706 100.894 74.1996 100.4 73.624 99.7619C73.2334 99.1033 72.8839 98.3005 72.5755 97.3537C72.2672 96.4068 72.113 95.5012 72.113 94.6367ZM78.8972 90.8082C78.4449 90.8082 77.972 90.8905 77.4787 91.0552C77.0058 91.1993 76.6358 91.4257 76.3685 91.7344C76.0396 92.0843 75.7929 92.4034 75.6284 92.6916C75.4845 92.9797 75.392 93.3399 75.3509 93.7722C75.577 93.7722 75.7929 93.7825 75.9985 93.8031C76.204 93.8236 76.3994 93.8442 76.5844 93.8648C77.4889 93.9471 78.1673 93.9883 78.6196 93.9883C79.5242 93.9883 80.2129 93.8545 80.6857 93.5869C81.1791 93.3193 81.4258 92.9591 81.4258 92.5063C81.4258 92.0741 81.1483 91.683 80.5932 91.3331C80.0587 90.9831 79.4933 90.8082 78.8972 90.8082Z" fill="#131313"/>
<path d="M70.5475 98.8048C70.897 99.0724 71.1334 99.3297 71.2568 99.5767C71.3801 99.8237 71.4418 100.132 71.4418 100.503C71.4418 100.812 71.2773 101.1 70.9484 101.367C70.64 101.614 70.3522 101.738 70.085 101.738C69.8588 101.738 69.5916 101.666 69.2832 101.522C68.9748 101.378 68.7384 101.213 68.5739 101.028C68.3478 100.843 67.9058 100.39 67.2479 99.6693C66.6106 98.9489 66.1378 98.3829 65.8294 97.9712C65.0893 97.0449 64.7193 96.5818 64.7193 96.5818L63.64 95.2542L61.6664 96.8597L61.7898 100.225C61.7898 100.781 61.6459 101.172 61.358 101.398C61.0908 101.625 60.8235 101.738 60.5563 101.738C60.1657 101.738 59.8162 101.666 59.5078 101.522C59.22 101.378 59.0452 101.213 58.9836 101.028C58.7574 100.204 58.6444 99.1239 58.6444 97.7859C58.6444 95.2748 58.6855 93.2679 58.7677 91.7653C58.8499 89.8922 58.8911 88.1221 58.8911 86.4548C58.8911 85.9402 58.8294 85.2301 58.706 84.3244C58.6855 84.1392 58.6546 83.8407 58.6135 83.4291C58.5724 83.0174 58.5518 82.6469 58.5518 82.3176C58.5518 81.8441 58.706 81.4736 59.0144 81.2061C59.3433 80.9385 59.7648 80.8047 60.2787 80.8047C60.6899 80.8047 61.0188 80.9385 61.2655 81.2061C61.5328 81.4531 61.6664 81.803 61.6664 82.2558C61.6664 82.9351 61.687 83.8304 61.7281 84.9419C61.7692 86.0534 61.7898 86.8665 61.7898 87.3811C61.7898 88.0191 61.7692 88.8734 61.7281 89.9437C61.687 90.52 61.6664 90.9523 61.6664 91.2404C61.6664 92.1461 61.6767 92.8974 61.6972 93.4943C62.4373 92.7327 63.4241 91.8476 64.6576 90.8391C65.9117 89.8099 66.8882 89.0895 67.5872 88.6778C68.3684 88.2044 68.8412 87.9677 69.0057 87.9677C69.4374 87.9677 69.8074 88.0603 70.1158 88.2456C70.4242 88.4308 70.5784 88.7087 70.5784 89.0792C70.5784 89.4497 70.527 89.7379 70.4242 89.9437C70.3214 90.1289 70.1364 90.3245 69.8691 90.5303L65.8911 93.4326C66.7751 94.5235 67.6899 95.635 68.6356 96.7671C69.5813 97.8786 70.2186 98.5578 70.5475 98.8048Z" fill="#131313"/>
<path d="M56.2641 101.738C55.5652 101.738 55.0307 101.635 54.6606 101.429C54.2906 101.203 53.8897 100.791 53.458 100.194C52.9234 100.668 52.1217 101.048 51.0527 101.337C50.0042 101.625 49.0996 101.769 48.339 101.769C47.0849 101.769 46.0673 101.429 45.2861 100.75C44.5254 100.05 44.1451 99.0313 44.1451 97.6933C44.1451 97.117 44.2993 96.5921 44.6077 96.1187C44.9366 95.6247 45.3581 95.1925 45.872 94.822C46.4476 94.4309 47.1261 94.1221 47.9073 93.8957C48.709 93.6693 49.4388 93.5561 50.0967 93.5561C51.2068 93.5561 52.1936 93.659 53.0571 93.8648V93.834C53.0571 92.7225 52.7795 91.9609 52.2245 91.5492C51.69 91.117 50.8265 90.9008 49.6341 90.9008C48.8735 90.9008 48.2156 91.2405 47.6606 91.9197C47.455 92.1873 47.0233 92.3211 46.3654 92.3211C46.0365 92.3211 45.7898 92.1873 45.6253 91.9197C45.4814 91.6316 45.4094 91.3434 45.4094 91.0552C45.4094 90.4583 45.6561 89.9437 46.1495 89.5115C46.6635 89.0792 47.2802 88.7602 47.9998 88.5543C48.7193 88.3279 49.3875 88.2147 50.0042 88.2147C50.6004 88.2147 51.3096 88.3382 52.132 88.5852C52.9543 88.8322 53.6224 89.1616 54.1364 89.5732C54.7531 90.1084 55.226 90.7362 55.5549 91.4566C55.9044 92.1564 56.0791 92.9283 56.0791 93.7722C56.0791 94.0398 56.0586 94.4412 56.0174 94.9763C55.9763 95.5938 55.9558 96.0981 55.9558 96.4892C55.9558 96.6745 55.9352 96.9112 55.8941 97.1993C55.853 97.5698 55.8324 97.8786 55.8324 98.1256C55.8324 98.3932 55.9147 98.6505 56.0791 98.8975C56.2436 99.1445 56.4697 99.3503 56.7575 99.515C57.0248 99.6591 57.1995 99.8134 57.2818 99.9781C57.364 100.143 57.4051 100.328 57.4051 100.534C57.4051 100.74 57.2715 100.997 57.0042 101.306C56.7575 101.594 56.5108 101.738 56.2641 101.738ZM50.0967 95.8408C49.2949 95.8408 48.5857 95.9952 47.9689 96.304C47.3522 96.6127 47.0438 97.1582 47.0438 97.9403C47.0438 98.3314 47.1774 98.6608 47.4447 98.9283C47.7325 99.1959 48.0409 99.3297 48.3698 99.3297C49.2538 99.3297 49.9939 99.2371 50.5901 99.0518C51.1863 98.8666 51.9058 98.527 52.7487 98.033C52.8515 97.7036 52.9132 97.2405 52.9337 96.6436C52.9337 96.4172 52.944 96.2422 52.9646 96.1187C51.8544 95.9335 50.8985 95.8408 50.0967 95.8408Z" fill="#131313"/>
<path d="M31.1453 95.0689C31.1453 94.2868 31.2892 93.5046 31.577 92.7224C31.8648 91.9197 32.2452 91.189 32.718 90.5303C33.1908 89.8716 33.9412 89.3365 34.9691 88.9248C35.997 88.4926 36.9119 88.2764 37.7136 88.2764C38.536 88.2764 39.3686 88.3896 40.2114 88.6161C41.0749 88.8425 41.6711 89.1924 42 89.6658C42.7607 90.7361 43.141 91.7859 43.141 92.8151C43.141 93.3708 43.0176 93.8442 42.7709 94.2353C42.5448 94.6264 42.2159 95.0483 41.7841 95.5012C41.4347 95.8717 40.8796 96.1187 40.1189 96.2422C39.3788 96.3657 38.6388 96.4274 37.8987 96.4274C37.4258 96.4274 36.8502 96.3863 36.1718 96.3039C35.4934 96.201 34.8355 96.0775 34.1982 95.9334C34.2393 96.3451 34.3421 96.7465 34.5066 97.1376C34.671 97.5286 34.8663 97.8271 35.0925 98.0329C35.5036 98.424 35.9251 98.671 36.3568 98.7739C36.8091 98.8768 37.3847 98.9283 38.0837 98.9283C38.8238 98.9283 39.5125 98.8048 40.1498 98.5578C40.6637 98.3726 41.0852 98.2799 41.4141 98.2799C41.8047 98.2799 42.1028 98.4034 42.3084 98.6504C42.514 98.8768 42.6168 99.1753 42.6168 99.5458C42.6168 100.06 42.3187 100.482 41.7225 100.812C41.1263 101.141 40.4376 101.388 39.6564 101.553C38.8957 101.697 38.279 101.769 37.8061 101.769C36.8399 101.769 35.9045 101.594 35 101.244C34.0954 100.894 33.345 100.4 32.7488 99.7619C32.2554 99.1856 31.8648 98.4961 31.577 97.6933C31.2892 96.87 31.1453 95.9952 31.1453 95.0689ZM37.8678 90.9008C37.4155 90.9008 36.9633 90.9934 36.511 91.1787C36.0587 91.3433 35.6887 91.5801 35.4008 91.8888C35.0308 92.2799 34.7738 92.5989 34.6299 92.8459C34.5066 93.0723 34.4243 93.3914 34.3832 93.8031C34.8972 93.9677 35.9662 94.0501 37.5903 94.0501C38.4743 94.0501 39.1527 93.9163 39.6255 93.6487C40.1189 93.3811 40.3656 93.0312 40.3656 92.5989C40.3656 92.1667 40.0984 91.7756 39.5639 91.4257C39.0294 91.0758 38.464 90.9008 37.8678 90.9008Z" fill="#131313"/>
<path d="M17.3211 90.8699C17.136 90.8699 16.9613 90.8905 16.7968 90.9317C16.6324 90.9523 16.4679 90.9626 16.3034 90.9626C16.0773 90.9626 15.8614 90.8596 15.6559 90.6538C15.4708 90.448 15.3783 90.2627 15.3783 90.0981C15.3783 89.5629 15.6456 89.1512 16.1801 88.8631C16.7146 88.5543 17.2594 88.3999 17.8145 88.3999C18.2873 88.3999 18.7704 88.5646 19.2638 88.8939C19.7778 89.2027 20.1581 89.6041 20.4048 90.0981C20.9393 89.46 21.5972 88.9968 22.3784 88.7087C23.1596 88.4205 23.9716 88.2764 24.8145 88.2764C25.7602 88.2764 26.6339 88.5749 27.4357 89.1718C28.258 89.7687 28.9056 90.5303 29.3784 91.4566C29.8513 92.3622 30.0877 93.2679 30.0877 94.1736C30.0877 95.0586 29.9952 95.8511 29.8101 96.5509C29.6251 97.2302 29.2962 97.9197 28.8233 98.6196C28.2888 99.3606 27.5693 99.9678 26.6647 100.441C25.7807 100.915 24.722 101.151 23.4885 101.151C23.1596 101.151 22.7587 101.069 22.2859 100.904C21.813 100.719 21.4224 100.524 21.114 100.318C20.9701 101.717 20.8982 102.932 20.8982 103.961C20.8982 104.578 20.929 105.165 20.9907 105.721C21.0318 106.379 21.0524 106.853 21.0524 107.141C21.0524 107.594 20.8982 107.923 20.5898 108.129C20.2814 108.355 19.9422 108.469 19.5722 108.469C18.8321 108.469 18.3387 108.263 18.092 107.851C17.8659 107.46 17.7528 106.894 17.7528 106.153C17.835 104.383 17.9378 102.747 18.0612 101.244C18.1845 99.3914 18.2462 96.5303 18.2462 92.6607C18.2462 92.2902 18.1742 91.8991 18.0303 91.4874C17.8864 91.0758 17.65 90.8699 17.3211 90.8699ZM21.2374 97.2611C21.3402 97.6521 21.628 97.9815 22.1008 98.2491C22.5942 98.4961 23.0362 98.6196 23.4268 98.6196C24.5987 98.6196 25.4724 98.3005 26.048 97.6624C26.4797 97.2096 26.7573 96.7671 26.8806 96.3348C27.0245 95.9026 27.0965 95.213 27.0965 94.2662C27.0965 93.5252 26.9526 92.9077 26.6647 92.4137C26.3769 91.8991 26.0274 91.5286 25.6163 91.3022C25.2051 91.0552 24.8145 90.9317 24.4445 90.9317C23.6016 90.9317 22.9129 91.189 22.3784 91.7036C21.8644 92.1976 21.5355 92.8768 21.3916 93.7413C21.2888 94.4206 21.2374 95.5938 21.2374 97.2611Z" fill="#131313"/>
<path d="M15.2697 96.026C15.2697 96.9935 15.0435 97.8271 14.5913 98.5269C14.1595 99.2062 13.44 99.834 12.4327 100.41C11.7542 100.822 10.9628 101.131 10.0582 101.337C9.15364 101.542 8.2388 101.645 7.31368 101.645C6.36801 101.645 5.19619 101.337 3.79824 100.719C2.79089 100.225 1.98912 99.6384 1.39294 98.9592C0.817309 98.2799 0.529495 97.5389 0.529495 96.7362C0.529495 96.1804 0.652844 95.779 0.899542 95.532C1.14624 95.2645 1.54712 95.1307 2.10219 95.1307C2.39001 95.1307 2.6881 95.2542 2.99647 95.5012C3.30484 95.7276 3.48987 95.954 3.55154 96.1804C3.83936 97.0243 4.34303 97.6727 5.06257 98.1255C5.7821 98.5578 6.67638 98.7739 7.7454 98.7739C8.97889 98.7739 10.0068 98.5475 10.8291 98.0947C11.672 97.6418 12.0934 97.0346 12.0934 96.273C12.0934 95.532 11.6412 94.8734 10.7366 94.297C9.83205 93.7207 8.90694 93.3193 7.96126 93.0929C6.60443 92.7224 5.40177 92.2799 4.35331 91.7653C3.26373 91.2301 2.45168 90.5715 1.91717 89.7893C1.38266 89.0071 1.1154 88.1838 1.1154 87.3193C1.1154 86.5165 1.39294 85.7035 1.94801 84.8802C2.50308 84.0363 3.16094 83.429 3.92159 83.0585C4.33275 82.8527 5.03173 82.6366 6.01852 82.4102C7.02587 82.1632 7.75568 82.0397 8.20796 82.0397C8.80415 82.0397 9.46201 82.1117 10.1815 82.2558C10.9011 82.3999 11.487 82.6057 11.9393 82.8733C12.8438 83.3879 13.512 83.851 13.9437 84.2627C14.3754 84.6743 14.5913 85.1889 14.5913 85.8064C14.5913 86.1769 14.4474 86.5063 14.1595 86.7944C13.8923 87.0826 13.4194 87.2267 12.741 87.2267C12.5766 87.2267 12.4121 87.1546 12.2476 87.0105C12.0832 86.8665 11.8776 86.6503 11.6309 86.3622C11.302 85.9299 10.9833 85.6418 10.6749 85.4977C10.3666 85.3948 9.91429 85.2815 9.3181 85.158C8.74247 85.0345 8.22852 84.9728 7.77624 84.9728C7.28284 84.9728 6.76889 85.0757 6.23438 85.2815C5.69987 85.4874 5.24759 85.7858 4.87754 86.1769C4.52805 86.5474 4.35331 86.9797 4.35331 87.4737C4.35331 87.8853 4.53833 88.2455 4.90838 88.5543C5.29898 88.8425 5.76154 89.0792 6.29605 89.2644C6.9128 89.5114 7.58094 89.7275 8.30047 89.9128C9.24615 90.201 10.0171 90.4685 10.6133 90.7155C11.23 90.942 11.8262 91.2301 12.4018 91.58C13.4092 92.177 14.139 92.7945 14.5913 93.4325C15.0435 94.05 15.2697 94.9145 15.2697 96.026Z" fill="#131313"/>
</g>
<defs>
<linearGradient id="paint0_linear_298_16605" x1="78.1042" y1="10.3125" x2="22.1146" y2="68.6459" gradientUnits="userSpaceOnUse">
<stop stop-color="#007AFF"/>
<stop offset="1" stop-color="#0058B7"/>
</linearGradient>
<clipPath id="clip0_298_16605">
<rect width="101" height="29" fill="white" transform="translate(0 80)"/>
</clipPath>
</defs>
</svg>
