<svg width="134" height="48" viewBox="0 0 134 48" fill="none" xmlns="http://www.w3.org/2000/svg">
<rect x="4" y="4" width="40" height="40" rx="12" fill="url(#paint0_linear_239_38463)"/>
<path fill-rule="evenodd" clip-rule="evenodd" d="M37.2875 29.3044C37.8823 28.265 38.2222 27.0611 38.2222 25.7778C38.2222 21.8504 35.0385 18.6667 31.1111 18.6667C27.1838 18.6667 24 21.8504 24 25.7778C24 29.7051 27.1838 32.8889 31.1111 32.8889C32.9061 32.8889 34.5457 32.2238 35.7971 31.1267L37.9827 31.6514L37.2875 29.3044Z" fill="white"/>
<path fill-rule="evenodd" clip-rule="evenodd" d="M26.3227 31.0352C28.4245 29.4094 29.7778 26.8627 29.7778 24C29.7778 22.2365 29.2642 20.5929 28.3785 19.2107C25.8074 20.2817 24 22.8187 24 25.7778C24 27.8608 24.8956 29.7346 26.3227 31.0352Z" fill="#E6F2FF"/>
<path fill-rule="evenodd" clip-rule="evenodd" d="M18.6667 32.8889C23.5759 32.8889 27.5555 28.9092 27.5555 24C27.5555 19.0908 23.5759 15.1111 18.6667 15.1111C13.7575 15.1111 9.77777 19.0908 9.77777 24C9.77777 25.586 10.1931 27.0749 10.921 28.364L9.94741 31.6515L13.0657 30.9027C14.5944 32.1446 16.5436 32.8889 18.6667 32.8889Z" fill="#F8F8F8"/>
<path d="M133.322 31.5085C133.322 31.9418 133.148 32.3492 132.802 32.7305C132.455 33.0945 132.074 33.2765 131.658 33.2765C131.172 33.2765 130.73 33.1465 130.332 32.8865C129.933 32.6092 129.734 32.2625 129.734 31.8465C129.734 31.1878 129.855 30.7025 130.098 30.3905C130.358 30.0785 130.739 29.9225 131.242 29.9225C131.831 29.9225 132.325 30.0698 132.724 30.3645C133.122 30.6418 133.322 31.0232 133.322 31.5085Z" fill="#131313"/>
<path d="M124.288 31.8985C124.253 32.1931 124.132 32.4532 123.924 32.6785C123.716 32.9038 123.447 33.0165 123.118 33.0165C122.598 33.0165 122.216 32.9212 121.974 32.7305C121.731 32.5225 121.61 32.1498 121.61 31.6125C121.61 30.8845 121.653 30.0872 121.74 29.2205C121.809 28.2152 121.844 27.4438 121.844 26.9065C121.844 26.6292 121.826 26.2825 121.792 25.8665C121.757 25.4852 121.74 25.1992 121.74 25.0085C121.688 24.7138 121.566 24.4798 121.376 24.3065C121.202 24.1332 120.925 23.9858 120.544 23.8645C120.388 23.7952 120.258 23.6825 120.154 23.5265C120.05 23.3532 119.998 23.1972 119.998 23.0585C119.998 22.6598 120.154 22.3565 120.466 22.1485C120.778 21.9405 121.159 21.8365 121.61 21.8365C122.112 21.8365 122.546 22.0098 122.91 22.3565C123.274 22.7032 123.551 23.1365 123.742 23.6565C124.14 23.0845 124.626 22.6252 125.198 22.2785C125.787 21.9318 126.359 21.7585 126.914 21.7585C127.624 21.7585 128.222 21.8798 128.708 22.1225C129.21 22.3478 129.462 22.7465 129.462 23.3185C129.462 23.6478 129.314 23.9945 129.02 24.3585C128.742 24.7052 128.456 24.8785 128.162 24.8785C127.936 24.8785 127.668 24.7745 127.356 24.5665C127.234 24.4798 127.096 24.4105 126.94 24.3585C126.801 24.2892 126.654 24.2545 126.498 24.2545C126.22 24.2545 125.96 24.2978 125.718 24.3845C125.475 24.4712 125.31 24.5752 125.224 24.6965C124.946 25.1298 124.738 25.5198 124.6 25.8665C124.478 26.2132 124.418 26.5858 124.418 26.9845C124.418 27.2792 124.409 27.5131 124.392 27.6865L124.366 29.1685L124.392 30.1565C124.392 30.8845 124.357 31.4651 124.288 31.8985Z" fill="#131313"/>
<path d="M109.223 27.0625C109.223 26.4385 109.335 25.8578 109.561 25.3205C109.786 24.7658 110.115 24.1938 110.549 23.6045C110.982 23.0151 111.58 22.5558 112.343 22.2265C113.105 21.8798 113.937 21.7065 114.839 21.7065C115.532 21.7065 116.199 21.8538 116.841 22.1485C117.499 22.4258 118.089 22.7725 118.609 23.1885C118.678 23.3098 118.799 23.5351 118.973 23.8645C119.146 24.1765 119.267 24.4625 119.337 24.7225C119.423 24.9825 119.467 25.2511 119.467 25.5285C119.467 26.6898 119.042 27.4698 118.193 27.8685C117.343 28.2498 116.269 28.4405 114.969 28.4405C113.669 28.4405 112.611 28.3538 111.797 28.1805C111.831 28.5098 111.918 28.8391 112.057 29.1685C112.195 29.4978 112.36 29.7491 112.551 29.9225C112.897 30.2518 113.235 30.4685 113.565 30.5725C113.911 30.6592 114.371 30.7025 114.943 30.7025C115.809 30.7025 116.485 30.5378 116.971 30.2085C117.421 29.9138 117.768 29.7665 118.011 29.7665C118.34 29.7665 118.591 29.8705 118.765 30.0785C118.938 30.2691 119.025 30.5205 119.025 30.8325C119.025 31.4911 118.6 32.0285 117.751 32.4445C116.919 32.8605 115.974 33.0685 114.917 33.0685C114.085 33.0685 113.261 32.9211 112.447 32.6265C111.632 32.3318 110.982 31.9158 110.497 31.3785C110.167 30.8238 109.873 30.1478 109.613 29.3505C109.353 28.5531 109.223 27.7905 109.223 27.0625ZM114.943 23.8385C114.561 23.8385 114.163 23.9078 113.747 24.0465C113.348 24.1678 113.036 24.3585 112.811 24.6185C112.533 24.9131 112.325 25.1818 112.187 25.4245C112.065 25.6671 111.987 25.9705 111.953 26.3345C112.143 26.3345 112.325 26.3431 112.499 26.3605C112.672 26.3778 112.837 26.3951 112.993 26.4125C113.755 26.4818 114.327 26.5165 114.709 26.5165C115.471 26.5165 116.052 26.4038 116.451 26.1785C116.867 25.9531 117.075 25.6498 117.075 25.2685C117.075 24.9045 116.841 24.5751 116.373 24.2805C115.922 23.9858 115.445 23.8385 114.943 23.8385Z" fill="#131313"/>
<path d="M107.903 30.5725C108.197 30.7978 108.397 31.0145 108.501 31.2225C108.605 31.4305 108.657 31.6905 108.657 32.0025C108.657 32.2625 108.518 32.5052 108.241 32.7305C107.981 32.9385 107.738 33.0425 107.513 33.0425C107.322 33.0425 107.097 32.9818 106.837 32.8605C106.577 32.7392 106.377 32.6005 106.239 32.4445C106.048 32.2885 105.675 31.9072 105.121 31.3005C104.583 30.6938 104.185 30.2172 103.925 29.8705C103.301 29.0905 102.989 28.7005 102.989 28.7005L102.079 27.5825L100.415 28.9345L100.519 31.7685C100.519 32.2365 100.397 32.5658 100.155 32.7565C99.9295 32.9472 99.7042 33.0425 99.4788 33.0425C99.1495 33.0425 98.8548 32.9818 98.5948 32.8605C98.3522 32.7392 98.2048 32.6005 98.1528 32.4445C97.9622 31.7512 97.8668 30.8412 97.8668 29.7145C97.8668 27.5998 97.9015 25.9098 97.9708 24.6445C98.0402 23.0672 98.0748 21.5765 98.0748 20.1725C98.0748 19.7392 98.0228 19.1412 97.9188 18.3785C97.9015 18.2225 97.8755 17.9712 97.8408 17.6245C97.8062 17.2778 97.7888 16.9658 97.7888 16.6885C97.7888 16.2898 97.9188 15.9778 98.1788 15.7525C98.4562 15.5272 98.8115 15.4145 99.2448 15.4145C99.5915 15.4145 99.8688 15.5272 100.077 15.7525C100.302 15.9605 100.415 16.2552 100.415 16.6365C100.415 17.2085 100.432 17.9625 100.467 18.8985C100.501 19.8345 100.519 20.5192 100.519 20.9525C100.519 21.4898 100.501 22.2092 100.467 23.1105C100.432 23.5958 100.415 23.9598 100.415 24.2025C100.415 24.9652 100.423 25.5978 100.441 26.1005C101.065 25.4592 101.897 24.7138 102.937 23.8645C103.994 22.9978 104.817 22.3912 105.407 22.0445C106.065 21.6458 106.464 21.4465 106.603 21.4465C106.967 21.4465 107.279 21.5245 107.539 21.6805C107.799 21.8365 107.929 22.0705 107.929 22.3825C107.929 22.6945 107.885 22.9372 107.799 23.1105C107.712 23.2665 107.556 23.4312 107.331 23.6045L103.977 26.0485C104.722 26.9672 105.493 27.9032 106.291 28.8565C107.088 29.7925 107.625 30.3645 107.903 30.5725Z" fill="#131313"/>
<path d="M95.86 33.0425C95.2706 33.0425 94.82 32.9558 94.508 32.7825C94.196 32.5918 93.858 32.2451 93.494 31.7425C93.0433 32.1411 92.3673 32.4618 91.466 32.7045C90.582 32.9471 89.8193 33.0685 89.178 33.0685C88.1206 33.0685 87.2626 32.7825 86.604 32.2105C85.9626 31.6211 85.642 30.7631 85.642 29.6365C85.642 29.1511 85.772 28.7091 86.032 28.3105C86.3093 27.8945 86.6646 27.5305 87.098 27.2185C87.5833 26.8891 88.1553 26.6291 88.814 26.4385C89.49 26.2478 90.1053 26.1525 90.66 26.1525C91.596 26.1525 92.428 26.2391 93.156 26.4125V26.3865C93.156 25.4505 92.922 24.8091 92.454 24.4625C92.0033 24.0985 91.2753 23.9165 90.27 23.9165C89.6286 23.9165 89.074 24.2025 88.606 24.7745C88.4326 24.9998 88.0686 25.1125 87.514 25.1125C87.2366 25.1125 87.0286 24.9998 86.89 24.7745C86.7686 24.5318 86.708 24.2891 86.708 24.0465C86.708 23.5438 86.916 23.1105 87.332 22.7465C87.7653 22.3825 88.2853 22.1138 88.892 21.9405C89.4986 21.7498 90.062 21.6545 90.582 21.6545C91.0846 21.6545 91.6826 21.7585 92.376 21.9665C93.0693 22.1745 93.6326 22.4518 94.066 22.7985C94.586 23.2491 94.9846 23.7778 95.262 24.3845C95.5566 24.9738 95.704 25.6238 95.704 26.3345C95.704 26.5598 95.6866 26.8978 95.652 27.3485C95.6173 27.8685 95.6 28.2931 95.6 28.6225C95.6 28.7785 95.5826 28.9778 95.548 29.2205C95.5133 29.5325 95.496 29.7925 95.496 30.0005C95.496 30.2258 95.5653 30.4425 95.704 30.6505C95.8426 30.8585 96.0333 31.0318 96.276 31.1705C96.5013 31.2918 96.6486 31.4218 96.718 31.5605C96.7873 31.6991 96.822 31.8551 96.822 32.0285C96.822 32.2018 96.7093 32.4185 96.484 32.6785C96.276 32.9211 96.068 33.0425 95.86 33.0425ZM90.66 28.0765C89.984 28.0765 89.386 28.2065 88.866 28.4665C88.346 28.7265 88.086 29.1858 88.086 29.8445C88.086 30.1738 88.1986 30.4511 88.424 30.6765C88.6666 30.9018 88.9266 31.0145 89.204 31.0145C89.9493 31.0145 90.5733 30.9365 91.076 30.7805C91.5786 30.6245 92.1853 30.3385 92.896 29.9225C92.9826 29.6451 93.0346 29.2551 93.052 28.7525C93.052 28.5618 93.0606 28.4145 93.078 28.3105C92.142 28.1545 91.336 28.0765 90.66 28.0765Z" fill="#131313"/>
<path d="M74.6813 27.4265C74.6813 26.7678 74.8027 26.1091 75.0453 25.4505C75.288 24.7745 75.6087 24.1591 76.0073 23.6045C76.406 23.0498 77.0387 22.5991 77.9053 22.2525C78.772 21.8885 79.5433 21.7065 80.2193 21.7065C80.9127 21.7065 81.6147 21.8018 82.3253 21.9925C83.0533 22.1831 83.556 22.4778 83.8333 22.8765C84.4747 23.7778 84.7953 24.6618 84.7953 25.5285C84.7953 25.9965 84.6913 26.3951 84.4833 26.7245C84.2927 27.0538 84.0153 27.4091 83.6513 27.7905C83.3567 28.1025 82.8887 28.3105 82.2473 28.4145C81.6233 28.5185 80.9993 28.5705 80.3753 28.5705C79.9767 28.5705 79.4913 28.5358 78.9193 28.4665C78.3473 28.3798 77.7927 28.2758 77.2553 28.1545C77.29 28.5011 77.3767 28.8391 77.5153 29.1685C77.654 29.4978 77.8187 29.7491 78.0093 29.9225C78.356 30.2518 78.7113 30.4598 79.0753 30.5465C79.4567 30.6331 79.942 30.6765 80.5313 30.6765C81.1553 30.6765 81.736 30.5725 82.2733 30.3645C82.7067 30.2085 83.062 30.1305 83.3393 30.1305C83.6687 30.1305 83.92 30.2345 84.0933 30.4425C84.2667 30.6331 84.3533 30.8845 84.3533 31.1965C84.3533 31.6298 84.102 31.9851 83.5993 32.2625C83.0967 32.5398 82.516 32.7478 81.8573 32.8865C81.216 33.0078 80.696 33.0685 80.2973 33.0685C79.4827 33.0685 78.694 32.9211 77.9313 32.6265C77.1687 32.3318 76.536 31.9158 76.0333 31.3785C75.6173 30.8931 75.288 30.3125 75.0453 29.6365C74.8027 28.9431 74.6813 28.2065 74.6813 27.4265ZM80.3493 23.9165C79.968 23.9165 79.5867 23.9945 79.2053 24.1505C78.824 24.2891 78.512 24.4885 78.2693 24.7485C77.9573 25.0778 77.7407 25.3465 77.6193 25.5545C77.5153 25.7451 77.446 26.0138 77.4113 26.3605C77.8447 26.4991 78.746 26.5685 80.1153 26.5685C80.8607 26.5685 81.4327 26.4558 81.8313 26.2305C82.2473 26.0051 82.4553 25.7105 82.4553 25.3465C82.4553 24.9825 82.23 24.6531 81.7793 24.3585C81.3287 24.0638 80.852 23.9165 80.3493 23.9165Z" fill="#131313"/>
<path d="M63.0256 23.8905C62.8696 23.8905 62.7223 23.9078 62.5836 23.9425C62.4449 23.9598 62.3063 23.9685 62.1676 23.9685C61.9769 23.9685 61.7949 23.8818 61.6216 23.7085C61.4656 23.5351 61.3876 23.3791 61.3876 23.2405C61.3876 22.7898 61.6129 22.4431 62.0636 22.2005C62.5143 21.9405 62.9736 21.8105 63.4416 21.8105C63.8403 21.8105 64.2476 21.9491 64.6636 22.2265C65.0969 22.4865 65.4176 22.8245 65.6256 23.2405C66.0763 22.7031 66.6309 22.3131 67.2896 22.0705C67.9483 21.8278 68.6329 21.7065 69.3436 21.7065C70.1409 21.7065 70.8776 21.9578 71.5536 22.4605C72.2469 22.9631 72.7929 23.6045 73.1916 24.3845C73.5903 25.1471 73.7896 25.9098 73.7896 26.6725C73.7896 27.4178 73.7116 28.0851 73.5556 28.6745C73.3996 29.2465 73.1223 29.8271 72.7236 30.4165C72.2729 31.0405 71.6663 31.5518 70.9036 31.9505C70.1583 32.3491 69.2656 32.5485 68.2256 32.5485C67.9483 32.5485 67.6103 32.4791 67.2116 32.3405C66.8129 32.1845 66.4836 32.0198 66.2236 31.8465C66.1023 33.0251 66.0416 34.0478 66.0416 34.9145C66.0416 35.4345 66.0676 35.9285 66.1196 36.3965C66.1543 36.9511 66.1716 37.3498 66.1716 37.5925C66.1716 37.9738 66.0416 38.2511 65.7816 38.4245C65.5216 38.6151 65.2356 38.7105 64.9236 38.7105C64.2996 38.7105 63.8836 38.5371 63.6756 38.1905C63.4849 37.8612 63.3896 37.3845 63.3896 36.7605C63.4589 35.2698 63.5456 33.8918 63.6496 32.6265C63.7536 31.0665 63.8056 28.6571 63.8056 25.3985C63.8056 25.0865 63.7449 24.7571 63.6236 24.4105C63.5023 24.0638 63.3029 23.8905 63.0256 23.8905ZM66.3276 29.2725C66.4143 29.6018 66.6569 29.8791 67.0556 30.1045C67.4716 30.3125 67.8443 30.4165 68.1736 30.4165C69.1616 30.4165 69.8983 30.1478 70.3836 29.6105C70.7476 29.2291 70.9816 28.8565 71.0856 28.4925C71.2069 28.1285 71.2676 27.5478 71.2676 26.7505C71.2676 26.1265 71.1463 25.6065 70.9036 25.1905C70.6609 24.7571 70.3663 24.4451 70.0196 24.2545C69.6729 24.0465 69.3436 23.9425 69.0316 23.9425C68.3209 23.9425 67.7403 24.1591 67.2896 24.5925C66.8563 25.0085 66.5789 25.5805 66.4576 26.3085C66.3709 26.8805 66.3276 27.8685 66.3276 29.2725Z" fill="#131313"/>
<path d="M61.296 28.2325C61.296 29.0471 61.1053 29.7491 60.724 30.3385C60.36 30.9105 59.7533 31.4391 58.904 31.9245C58.332 32.2711 57.6647 32.5311 56.902 32.7045C56.1393 32.8778 55.368 32.9645 54.588 32.9645C53.7907 32.9645 52.8027 32.7045 51.624 32.1845C50.7747 31.7685 50.0987 31.2745 49.596 30.7025C49.1107 30.1305 48.868 29.5065 48.868 28.8305C48.868 28.3625 48.972 28.0245 49.18 27.8165C49.388 27.5911 49.726 27.4785 50.194 27.4785C50.4367 27.4785 50.688 27.5825 50.948 27.7905C51.208 27.9811 51.364 28.1718 51.416 28.3625C51.6587 29.0731 52.0833 29.6191 52.69 30.0005C53.2967 30.3645 54.0507 30.5465 54.952 30.5465C55.992 30.5465 56.8587 30.3558 57.552 29.9745C58.2627 29.5931 58.618 29.0818 58.618 28.4405C58.618 27.8165 58.2367 27.2618 57.474 26.7765C56.7113 26.2911 55.9313 25.9531 55.134 25.7625C53.99 25.4505 52.976 25.0778 52.092 24.6445C51.1733 24.1938 50.4887 23.6391 50.038 22.9805C49.5873 22.3218 49.362 21.6285 49.362 20.9005C49.362 20.2245 49.596 19.5398 50.064 18.8465C50.532 18.1358 51.0867 17.6245 51.728 17.3125C52.0747 17.1391 52.664 16.9571 53.496 16.7665C54.3453 16.5585 54.9607 16.4545 55.342 16.4545C55.8447 16.4545 56.3993 16.5151 57.006 16.6365C57.6127 16.7578 58.1067 16.9311 58.488 17.1565C59.2507 17.5898 59.814 17.9798 60.178 18.3265C60.542 18.6731 60.724 19.1065 60.724 19.6265C60.724 19.9385 60.6027 20.2158 60.36 20.4585C60.1347 20.7011 59.736 20.8225 59.164 20.8225C59.0253 20.8225 58.8867 20.7618 58.748 20.6405C58.6093 20.5191 58.436 20.3371 58.228 20.0945C57.9507 19.7305 57.682 19.4878 57.422 19.3665C57.162 19.2798 56.7807 19.1845 56.278 19.0805C55.7927 18.9765 55.3593 18.9245 54.978 18.9245C54.562 18.9245 54.1287 19.0111 53.678 19.1845C53.2273 19.3578 52.846 19.6091 52.534 19.9385C52.2393 20.2505 52.092 20.6145 52.092 21.0305C52.092 21.3771 52.248 21.6805 52.56 21.9405C52.8893 22.1831 53.2793 22.3825 53.73 22.5385C54.25 22.7465 54.8133 22.9285 55.42 23.0845C56.2173 23.3271 56.8673 23.5525 57.37 23.7605C57.89 23.9511 58.3927 24.1938 58.878 24.4885C59.7273 24.9911 60.3427 25.5111 60.724 26.0485C61.1053 26.5685 61.296 27.2965 61.296 28.2325Z" fill="#131313"/>
<defs>
<linearGradient id="paint0_linear_239_38463" x1="40.5625" y1="6.1875" x2="6.96875" y2="41.1875" gradientUnits="userSpaceOnUse">
<stop stop-color="#007AFF"/>
<stop offset="1" stop-color="#0058B7"/>
</linearGradient>
</defs>
</svg>
